HIERARCHY
ROOT Hips
{
	OFFSET -0.001795 -0.223333 0.028219
	CHANNELS 6 Xposition Yposition Zposition Zrotation Yrotation Xrotation 
	JOINT LeftUpLeg
	{
		OFFSET 0.069520 -0.091406 -0.006815
		CHANNELS 3 Zrotation Yrotation Xrotation
		JOINT LeftLeg
		{
			OFFSET 0.034277 -0.375199 -0.004496
			CHANNELS 3 Zrotation Yrotation Xrotation
			JOINT LeftFoot
			{
				OFFSET -0.013596 -0.397961 -0.043693
				CHANNELS 3 Zrotation Yrotation Xrotation
				JOINT LeftToe
				{
					OFFSET 0.026358 -0.055791 0.119288
					CHANNELS 3 Zrotation Yrotation Xrotation
					End Site
					{
						OFFSET 0.000000 0.000000 0.000000
					}
				}
			}
		}
	}
	JOINT RightUpLeg
	{
		OFFSET -0.067670 -0.090522 -0.004320
		CHANNELS 3 Zrotation Yrotation Xrotation
		JOINT RightLeg
		{
			OFFSET -0.038290 -0.382569 -0.008850
			CHANNELS 3 Zrotation Yrotation Xrotation
			JOINT RightFoot
			{
				OFFSET 0.015774 -0.398415 -0.042312
				CHANNELS 3 Zrotation Yrotation Xrotation
				JOINT RightToe
				{
					OFFSET -0.025372 -0.048144 0.123348
					CHANNELS 3 Zrotation Yrotation Xrotation
					End Site
					{
						OFFSET 0.000000 0.000000 0.000000
					}
				}
			}
		}
	}
	JOINT Spine
	{
		OFFSET -0.002533 0.108963 -0.026696
		CHANNELS 3 Zrotation Yrotation Xrotation
		JOINT Spine1
		{
			OFFSET 0.005487 0.135180 0.001092
			CHANNELS 3 Zrotation Yrotation Xrotation
			JOINT Spine2
			{
				OFFSET 0.001457 0.052922 0.025425
				CHANNELS 3 Zrotation Yrotation Xrotation
				JOINT Neck
				{
					OFFSET -0.002778 0.213870 -0.042857
					CHANNELS 3 Zrotation Yrotation Xrotation
					JOINT Head
					{
						OFFSET 0.005152 0.064970 0.051349
						CHANNELS 3 Zrotation Yrotation Xrotation
						End Site
						{
							OFFSET 0.000000 0.000000 0.000000
						}
					}
				}
				JOINT LeftShoulder
				{
					OFFSET 0.078845 0.121749 -0.034090
					CHANNELS 3 Zrotation Yrotation Xrotation
					JOINT LeftArm
					{
						OFFSET 0.090977 0.030469 -0.008868
						CHANNELS 3 Zrotation Yrotation Xrotation
						JOINT LeftForeArm
						{
							OFFSET 0.259612 -0.012772 -0.027456
							CHANNELS 3 Zrotation Yrotation Xrotation
							JOINT LeftHand
							{
								OFFSET 0.249234 0.008986 -0.001171
								CHANNELS 3 Zrotation Yrotation Xrotation
								End Site
								{
									OFFSET 0.000000 0.000000 0.000000
								}
							}
						}
					}
				}
				JOINT RightShoulder
				{
					OFFSET -0.081759 0.118833 -0.038615
					CHANNELS 3 Zrotation Yrotation Xrotation
					JOINT RightArm
					{
						OFFSET -0.096012 0.032551 -0.009143
						CHANNELS 3 Zrotation Yrotation Xrotation
						JOINT RightForeArm
						{
							OFFSET -0.253742 -0.013329 -0.021401
							CHANNELS 3 Zrotation Yrotation Xrotation
							JOINT RightHand
							{
								OFFSET -0.255298 0.007772 -0.005559
								CHANNELS 3 Zrotation Yrotation Xrotation
								End Site
								{
									OFFSET 0.000000 0.000000 0.000000
								}
							}
						}
					}
				}
			}
		}
	}
}
MOTION
Frames: 12
Frame Time: 0.050000
0.000000 0.596313 0.000000 -0.232560 -4.048495 32.918572 15.169398 -1.556377 46.765581 -22.667073 -9.638625 -85.167690 80.826165 32.226710 108.770572 0.000000 0.000000 0.000000 -12.984422 2.822333 44.342020 26.261992 14.090815 -78.782082 -106.884150 -41.695595 112.384020 0.000000 0.000000 0.000000 -1.715887 1.139104 -22.007968 3.556648 4.462753 -83.746390 -3.083296 -1.906669 90.491117 -12.097184 3.626793 -106.491227 0.000000 0.000000 0.000000 -22.719477 20.471884 -9.674806 -41.079211 -2.984553 -17.823150 95.224579 64.278003 83.850620 0.000000 0.000000 0.000000 -0.842205 -26.064774 -14.663812 35.923485 -16.274183 -16.979911 -79.795616 -25.211157 26.405028 0.000000 0.000000 0.000000 
-0.000632 0.593338 -0.000409 -1.434051 -5.150328 34.140928 13.692146 -0.420503 46.207828 -20.587349 -7.546713 -85.378664 78.444970 35.245868 103.025469 0.000000 0.000000 0.000000 -12.547439 2.997409 42.731603 26.313362 14.378147 -77.497905 -109.214338 -38.674342 115.891388 0.000000 0.000000 0.000000 -0.116879 1.447398 -23.328928 1.062866 4.415795 -84.421096 1.180365 -4.949318 91.844766 -28.960379 2.958373 -106.213555 0.000000 0.000000 0.000000 -25.617220 17.194302 -6.483915 -37.621369 -6.761812 -16.889206 100.325309 68.322816 91.237487 0.000000 0.000000 0.000000 -2.156886 -27.913974 -16.112871 39.888559 -20.014992 -20.393875 -77.971662 -21.754224 24.307434 0.000000 0.000000 0.000000 
-0.000828 0.594052 -0.000505 -2.706492 -7.233233 34.587375 13.451530 0.623919 48.832038 -21.245162 -7.536485 -86.716700 72.160454 35.634370 99.506410 0.000000 0.000000 0.000000 -14.388420 4.608950 41.959164 27.236957 15.719341 -77.513380 -103.566609 -35.667843 117.229936 0.000000 0.000000 0.000000 0.852237 1.906493 -25.115610 2.209098 5.843667 -85.463139 2.211872 -4.210188 96.398828 -38.310367 1.745056 -109.825247 0.000000 0.000000 0.000000 -27.174164 16.887539 -5.559104 -36.532455 -9.385847 -18.122658 105.994157 69.784785 101.236278 0.000000 0.000000 0.000000 2.027908 -28.085942 -17.220737 39.567613 -18.420919 -21.455968 -75.721725 -24.541755 26.822656 0.000000 0.000000 0.000000 
-0.001181 0.589917 -0.000236 -3.014850 -7.321582 34.714523 13.885043 0.498633 49.230726 -22.017825 -8.099389 -87.169770 72.839210 35.831017 99.520610 0.000000 0.000000 0.000000 -14.719491 4.928620 42.817707 28.566606 16.823012 -78.334807 -101.328769 -33.608743 119.076396 0.000000 0.000000 0.000000 1.135033 1.940176 -25.049443 0.826751 5.701683 -87.386351 2.685341 -6.653645 97.780662 -45.234586 2.784540 -107.003881 0.000000 0.000000 0.000000 -28.150094 16.723623 -4.500500 -35.553818 -9.909991 -18.078813 109.187959 72.242464 107.221605 0.000000 0.000000 0.000000 -1.511668 -29.722640 -18.538720 41.482075 -20.265624 -22.598229 -73.860494 -20.791899 23.366874 0.000000 0.000000 0.000000 
-0.001524 0.590314 0.001296 -2.925968 -6.555883 34.437783 14.832250 -0.197595 50.108417 -22.536586 -8.912421 -87.785752 67.828276 34.647750 98.961532 0.000000 0.000000 0.000000 -14.522530 4.720462 44.435921 27.262651 16.190627 -80.475922 -96.337317 -33.008146 118.677550 0.000000 0.000000 0.000000 1.258334 1.929842 -25.608379 0.363404 5.281606 -88.800318 1.287927 -7.229011 100.276976 -45.498311 2.014228 -110.001415 0.000000 0.000000 0.000000 -29.558027 16.702040 -3.621227 -34.343816 -10.312221 -18.924364 116.333083 72.516915 115.767200 0.000000 0.000000 0.000000 -0.331866 -28.792285 -18.547209 40.690305 -20.806252 -23.460429 -69.778447 -21.421693 21.605883 0.000000 0.000000 0.000000 
-0.001759 0.588085 0.003229 -3.747971 -7.367408 35.019440 14.523800 0.343263 50.960821 -23.150909 -9.310050 -89.020873 67.890617 34.274535 99.754972 0.000000 0.000000 0.000000 -15.291822 5.428613 43.935257 27.539334 16.180568 -79.091440 -92.870115 -33.849790 116.496042 0.000000 0.000000 0.000000 2.279709 2.261346 -26.966172 0.130335 5.929724 -91.248451 0.861181 -7.669117 103.344743 -44.067965 2.243141 -110.579071 0.000000 0.000000 0.000000 -29.500737 17.038634 -3.303884 -34.440115 -10.301316 -20.035910 117.103423 70.349423 115.468499 0.000000 0.000000 0.000000 -1.643416 -29.402031 -19.540827 41.105928 -23.407943 -25.083172 -67.098012 -17.893416 18.311829 0.000000 0.000000 0.000000 
-0.002263 0.587726 0.004896 -3.326283 -6.777258 34.699225 15.379761 -0.330279 51.061699 -24.476663 -10.394708 -88.316083 67.325002 34.343119 99.255671 0.000000 0.000000 0.000000 -14.734901 5.010331 45.059465 26.704628 15.671549 -79.972573 -90.801504 -33.052648 116.938666 0.000000 0.000000 0.000000 1.939756 2.231987 -27.620136 0.105252 5.558900 -91.423186 0.075933 -7.774352 104.078830 -42.449925 2.205956 -111.402718 0.000000 0.000000 0.000000 -29.594611 16.624430 -2.647095 -34.620322 -10.244827 -20.577199 117.778730 69.326412 115.721101 0.000000 0.000000 0.000000 -0.313450 -28.475876 -19.072497 40.996512 -24.266545 -25.900703 -65.782179 -19.447142 18.519058 0.000000 0.000000 0.000000 
-0.003050 0.586852 0.005973 -3.432485 -6.636616 34.839223 15.744385 -0.533509 51.538560 -25.317182 -11.146825 -88.618462 67.122187 34.258063 99.278164 0.000000 0.000000 0.000000 -14.481737 4.854442 45.232541 26.418923 15.377801 -79.644209 -88.423790 -32.490637 116.934736 0.000000 0.000000 0.000000 1.923339 2.327136 -28.571751 -0.227621 5.397811 -92.083715 -0.306109 -8.798829 104.948795 -41.304560 2.646989 -110.914544 0.000000 0.000000 0.000000 -29.012820 16.281257 -2.014047 -35.181825 -10.839977 -20.836541 118.692665 67.480947 115.744374 0.000000 0.000000 0.000000 -1.067460 -28.262334 -19.050860 41.505987 -25.315536 -26.703644 -65.684932 -19.640994 18.118847 0.000000 0.000000 0.000000 
-0.003998 0.584924 0.006609 -3.158961 -6.309063 34.806221 16.101582 -0.840928 51.891703 -26.019812 -11.820606 -88.615668 67.399700 34.362112 99.209125 0.000000 0.000000 0.000000 -14.462608 4.757275 45.600191 26.417284 15.245572 -79.733649 -88.235297 -31.843325 117.811771 0.000000 0.000000 0.000000 1.818110 2.285887 -28.723373 -0.405493 5.243540 -93.242948 -0.858183 -9.163710 105.712591 -42.144767 2.917235 -110.480681 0.000000 0.000000 0.000000 -28.503042 16.233560 -1.844703 -35.224814 -11.080099 -20.902442 117.569383 65.825883 112.923471 0.000000 0.000000 0.000000 -1.814830 -27.668588 -18.592321 43.061806 -26.462434 -28.109676 -65.877684 -20.646478 19.059688 0.000000 0.000000 0.000000 
-0.004877 0.583808 0.007281 -3.251732 -6.777481 34.554533 15.885362 -0.513138 52.528222 -25.751554 -11.570817 -88.653901 66.786160 33.867877 99.895459 0.000000 0.000000 0.000000 -14.652378 5.031875 45.757961 26.494143 15.373488 -79.464395 -88.257923 -31.827920 117.787052 0.000000 0.000000 0.000000 2.397398 2.376153 -28.467848 -0.059431 5.686023 -93.263167 -0.921300 -8.820791 105.232640 -39.045057 2.939910 -110.705576 0.000000 0.000000 0.000000 -28.159014 16.012272 -1.778891 -35.681191 -10.809282 -20.853172 118.739210 64.428425 113.251776 0.000000 0.000000 0.000000 -2.703301 -27.904261 -18.626730 44.332129 -26.802046 -28.532738 -67.723586 -21.286823 20.492445 0.000000 0.000000 0.000000 
-0.005614 0.583473 0.008013 -3.239599 -6.775265 34.266976 15.718408 -0.396637 53.106780 -25.356772 -11.471876 -89.105220 66.591252 33.813998 99.900863 0.000000 0.000000 0.000000 -14.731543 5.057665 45.661513 26.170611 15.001676 -78.919663 -89.302482 -31.221303 118.788949 0.000000 0.000000 0.000000 2.779346 2.402074 -28.376736 0.271724 5.841163 -93.083136 -1.221401 -8.699449 104.531898 -37.625517 3.124038 -110.415645 0.000000 0.000000 0.000000 -28.387445 15.814350 -1.596187 -34.945557 -11.458833 -20.248182 122.967234 63.412203 116.637932 0.000000 0.000000 0.000000 -4.015296 -28.005775 -18.563789 45.828387 -26.715611 -28.936774 -70.058769 -21.839062 22.389943 0.000000 0.000000 0.000000 
-0.006110 0.582863 0.009051 -3.066317 -6.720076 34.235676 15.580019 -0.347184 53.428532 -25.248092 -11.549289 -89.407169 65.601417 33.502309 99.986617 0.000000 0.000000 0.000000 -14.581238 4.921234 45.557195 25.960963 14.637907 -78.175009 -89.657037 -30.786255 119.383598 0.000000 0.000000 0.000000 2.942967 2.501522 -29.176624 1.025934 6.081037 -93.102438 -1.714409 -8.012717 104.753707 -34.207888 3.381434 -110.176918 0.000000 0.000000 0.000000 -27.170624 15.789863 -1.837732 -35.686493 -11.286659 -20.577735 125.430544 60.079996 117.132654 0.000000 0.000000 0.000000 -4.939282 -27.907664 -18.556291 48.166841 -26.582089 -30.203503 -72.847353 -21.113388 24.708078 0.000000 0.000000 0.000000 
